<mxfile host="app.diagrams.net" modified="2023-09-02T19:48:33.838Z" agent="Mozilla/5.0 (Windows NT 10.0; Win64; x64) AppleWebKit/537.36 (KHTML, like Gecko) Chrome/116.0.0.0 Safari/537.36" etag="5_WGGoXIFeazLHQe8B64" version="21.7.2" type="github">
  <diagram name="PÃ¡gina-1" id="LmaW3b6RDVu_Y6F2I-ss">
    <mxGraphModel dx="1434" dy="790" grid="1" gridSize="10" guides="1" tooltips="1" connect="1" arrows="1" fold="1" page="1" pageScale="1" pageWidth="827" pageHeight="1169" background="none" math="0" shadow="1">
      <root>
        <mxCell id="0" />
        <mxCell id="1" parent="0" />
        <mxCell id="ofXk7ZVOFxczzcaQG5kB-1" value="&lt;font style=&quot;font-size: 18px;&quot;&gt;Bom dia&lt;/font&gt;" style="rounded=1;whiteSpace=wrap;html=1;labelBackgroundColor=none;fillColor=#09555B;strokeColor=#BAC8D3;fontColor=#EEEEEE;" parent="1" vertex="1">
          <mxGeometry x="40" y="120" width="200" height="40" as="geometry" />
        </mxCell>
        <mxCell id="ofXk7ZVOFxczzcaQG5kB-3" value="&lt;font style=&quot;font-size: 18px;&quot;&gt;Boa tarde&lt;/font&gt;" style="rounded=1;whiteSpace=wrap;html=1;labelBackgroundColor=none;fillColor=#09555B;strokeColor=#BAC8D3;fontColor=#EEEEEE;" parent="1" vertex="1">
          <mxGeometry x="320" y="120" width="200" height="40" as="geometry" />
        </mxCell>
        <mxCell id="ofXk7ZVOFxczzcaQG5kB-4" value="&lt;font style=&quot;font-size: 18px;&quot;&gt;Boa noite&lt;/font&gt;" style="rounded=1;whiteSpace=wrap;html=1;labelBackgroundColor=none;fillColor=#09555B;strokeColor=#BAC8D3;fontColor=#EEEEEE;" parent="1" vertex="1">
          <mxGeometry x="600" y="120" width="196" height="40" as="geometry" />
        </mxCell>
        <mxCell id="ofXk7ZVOFxczzcaQG5kB-10" value="" style="html=1;shadow=0;dashed=0;align=center;verticalAlign=middle;shape=mxgraph.arrows2.arrow;dy=0.6;dx=40;direction=south;notch=0;labelBackgroundColor=none;fillColor=#09555B;strokeColor=#BAC8D3;fontColor=#EEEEEE;rounded=1;strokeWidth=0;" parent="1" vertex="1">
          <mxGeometry x="370" y="170" width="100" height="150" as="geometry" />
        </mxCell>
        <mxCell id="ofXk7ZVOFxczzcaQG5kB-11" value="" style="html=1;shadow=0;dashed=0;align=center;verticalAlign=middle;shape=mxgraph.arrows2.arrow;dy=0.6;dx=40;direction=south;notch=0;labelBackgroundColor=none;fillColor=#09555B;strokeColor=#BAC8D3;fontColor=#EEEEEE;rounded=1;" parent="1" vertex="1">
          <mxGeometry x="660" y="170" width="100" height="150" as="geometry" />
        </mxCell>
        <mxCell id="ofXk7ZVOFxczzcaQG5kB-15" value="" style="html=1;shadow=0;dashed=0;align=center;verticalAlign=middle;shape=mxgraph.arrows2.arrow;dy=0.6;dx=40;direction=south;notch=0;labelBackgroundColor=none;fillColor=#09555B;strokeColor=#BAC8D3;fontColor=#EEEEEE;rounded=1;" parent="1" vertex="1">
          <mxGeometry x="80" y="170" width="100" height="150" as="geometry" />
        </mxCell>
        <mxCell id="ofXk7ZVOFxczzcaQG5kB-35" value="&lt;h1&gt;&lt;font face=&quot;Storm Gust&quot; data-font-src=&quot;https://www.dafont.com/pt/search.php?q=stormgust&quot; size=&quot;1&quot; style=&quot;&quot;&gt;&lt;b style=&quot;&quot;&gt;&lt;i style=&quot;&quot;&gt;&lt;u style=&quot;font-size: 42px;&quot;&gt;ORGANIZE SUA ROTINA&lt;/u&gt;&lt;/i&gt;&lt;/b&gt;&lt;/font&gt;&lt;/h1&gt;" style="text;html=1;align=center;verticalAlign=middle;whiteSpace=wrap;rounded=0;" parent="1" vertex="1">
          <mxGeometry x="42" y="10" width="756" height="90" as="geometry" />
        </mxCell>
        <mxCell id="ofXk7ZVOFxczzcaQG5kB-100" style="edgeStyle=orthogonalEdgeStyle;rounded=0;orthogonalLoop=1;jettySize=auto;html=1;exitX=1;exitY=0.5;exitDx=0;exitDy=0;entryX=0;entryY=0.5;entryDx=0;entryDy=0;" parent="1" source="ofXk7ZVOFxczzcaQG5kB-41" target="ofXk7ZVOFxczzcaQG5kB-42" edge="1">
          <mxGeometry relative="1" as="geometry" />
        </mxCell>
        <mxCell id="ofXk7ZVOFxczzcaQG5kB-41" value="&lt;font style=&quot;font-size: 14px;&quot;&gt;Digite sua tarefa.&lt;/font&gt;" style="html=1;whiteSpace=wrap;" parent="1" vertex="1">
          <mxGeometry x="10" y="375" width="110" height="50" as="geometry" />
        </mxCell>
        <mxCell id="ofXk7ZVOFxczzcaQG5kB-42" value="5:00 am" style="ellipse;whiteSpace=wrap;html=1;" parent="1" vertex="1">
          <mxGeometry x="160" y="350" width="100" height="100" as="geometry" />
        </mxCell>
        <mxCell id="ofXk7ZVOFxczzcaQG5kB-101" style="edgeStyle=orthogonalEdgeStyle;rounded=0;orthogonalLoop=1;jettySize=auto;html=1;exitX=0;exitY=0.5;exitDx=0;exitDy=0;entryX=0;entryY=0.5;entryDx=0;entryDy=0;" parent="1" source="ofXk7ZVOFxczzcaQG5kB-43" target="ofXk7ZVOFxczzcaQG5kB-44" edge="1">
          <mxGeometry relative="1" as="geometry" />
        </mxCell>
        <mxCell id="ofXk7ZVOFxczzcaQG5kB-43" value="&lt;font style=&quot;font-size: 14px;&quot;&gt;Digite sua tarefa.&lt;/font&gt;" style="html=1;whiteSpace=wrap;direction=west;" parent="1" vertex="1">
          <mxGeometry x="10" y="495" width="110" height="50" as="geometry" />
        </mxCell>
        <mxCell id="ofXk7ZVOFxczzcaQG5kB-44" value="6:00 am" style="ellipse;whiteSpace=wrap;html=1;" parent="1" vertex="1">
          <mxGeometry x="160" y="470" width="100" height="100" as="geometry" />
        </mxCell>
        <mxCell id="ofXk7ZVOFxczzcaQG5kB-45" value="7:00 am" style="ellipse;whiteSpace=wrap;html=1;" parent="1" vertex="1">
          <mxGeometry x="160" y="590" width="100" height="100" as="geometry" />
        </mxCell>
        <mxCell id="ofXk7ZVOFxczzcaQG5kB-46" value="8:00 am" style="ellipse;whiteSpace=wrap;html=1;" parent="1" vertex="1">
          <mxGeometry x="160" y="710" width="100" height="100" as="geometry" />
        </mxCell>
        <mxCell id="ofXk7ZVOFxczzcaQG5kB-47" value="9:00 am" style="ellipse;whiteSpace=wrap;html=1;" parent="1" vertex="1">
          <mxGeometry x="160" y="830" width="100" height="100" as="geometry" />
        </mxCell>
        <mxCell id="ofXk7ZVOFxczzcaQG5kB-48" value="10:00 am" style="ellipse;whiteSpace=wrap;html=1;" parent="1" vertex="1">
          <mxGeometry x="160" y="950" width="100" height="100" as="geometry" />
        </mxCell>
        <mxCell id="ofXk7ZVOFxczzcaQG5kB-49" value="11:00 am" style="ellipse;whiteSpace=wrap;html=1;" parent="1" vertex="1">
          <mxGeometry x="160" y="1069" width="100" height="100" as="geometry" />
        </mxCell>
        <mxCell id="ofXk7ZVOFxczzcaQG5kB-102" style="edgeStyle=orthogonalEdgeStyle;rounded=0;orthogonalLoop=1;jettySize=auto;html=1;exitX=0;exitY=0.5;exitDx=0;exitDy=0;entryX=0;entryY=0.5;entryDx=0;entryDy=0;" parent="1" source="ofXk7ZVOFxczzcaQG5kB-52" target="ofXk7ZVOFxczzcaQG5kB-45" edge="1">
          <mxGeometry relative="1" as="geometry" />
        </mxCell>
        <mxCell id="ofXk7ZVOFxczzcaQG5kB-52" value="&lt;font style=&quot;font-size: 14px;&quot;&gt;Digite sua tarefa.&lt;/font&gt;" style="html=1;whiteSpace=wrap;direction=west;" parent="1" vertex="1">
          <mxGeometry x="10" y="615" width="110" height="50" as="geometry" />
        </mxCell>
        <mxCell id="ofXk7ZVOFxczzcaQG5kB-103" style="edgeStyle=orthogonalEdgeStyle;rounded=0;orthogonalLoop=1;jettySize=auto;html=1;exitX=0;exitY=0.5;exitDx=0;exitDy=0;" parent="1" source="ofXk7ZVOFxczzcaQG5kB-53" target="ofXk7ZVOFxczzcaQG5kB-46" edge="1">
          <mxGeometry relative="1" as="geometry" />
        </mxCell>
        <mxCell id="ofXk7ZVOFxczzcaQG5kB-53" value="&lt;font style=&quot;font-size: 14px;&quot;&gt;Digite sua tarefa.&lt;/font&gt;" style="html=1;whiteSpace=wrap;direction=west;" parent="1" vertex="1">
          <mxGeometry x="10" y="735" width="110" height="50" as="geometry" />
        </mxCell>
        <mxCell id="ofXk7ZVOFxczzcaQG5kB-104" style="edgeStyle=orthogonalEdgeStyle;rounded=0;orthogonalLoop=1;jettySize=auto;html=1;exitX=0;exitY=0.5;exitDx=0;exitDy=0;entryX=0;entryY=0.5;entryDx=0;entryDy=0;" parent="1" source="ofXk7ZVOFxczzcaQG5kB-54" target="ofXk7ZVOFxczzcaQG5kB-47" edge="1">
          <mxGeometry relative="1" as="geometry" />
        </mxCell>
        <mxCell id="ofXk7ZVOFxczzcaQG5kB-54" value="&lt;font style=&quot;font-size: 14px;&quot;&gt;Digite sua tarefa.&lt;/font&gt;" style="html=1;whiteSpace=wrap;direction=west;" parent="1" vertex="1">
          <mxGeometry x="10" y="855" width="110" height="50" as="geometry" />
        </mxCell>
        <mxCell id="ofXk7ZVOFxczzcaQG5kB-105" style="edgeStyle=orthogonalEdgeStyle;rounded=0;orthogonalLoop=1;jettySize=auto;html=1;exitX=0;exitY=0.5;exitDx=0;exitDy=0;entryX=0;entryY=0.5;entryDx=0;entryDy=0;" parent="1" source="ofXk7ZVOFxczzcaQG5kB-55" target="ofXk7ZVOFxczzcaQG5kB-48" edge="1">
          <mxGeometry relative="1" as="geometry" />
        </mxCell>
        <mxCell id="ofXk7ZVOFxczzcaQG5kB-55" value="&lt;font style=&quot;font-size: 14px;&quot;&gt;Digite sua tarefa.&lt;/font&gt;" style="html=1;whiteSpace=wrap;direction=west;" parent="1" vertex="1">
          <mxGeometry x="10" y="975" width="110" height="50" as="geometry" />
        </mxCell>
        <mxCell id="ofXk7ZVOFxczzcaQG5kB-106" style="edgeStyle=orthogonalEdgeStyle;rounded=0;orthogonalLoop=1;jettySize=auto;html=1;exitX=0;exitY=0.5;exitDx=0;exitDy=0;entryX=0;entryY=0.5;entryDx=0;entryDy=0;" parent="1" source="ofXk7ZVOFxczzcaQG5kB-56" target="ofXk7ZVOFxczzcaQG5kB-49" edge="1">
          <mxGeometry relative="1" as="geometry" />
        </mxCell>
        <mxCell id="ofXk7ZVOFxczzcaQG5kB-56" value="&lt;font style=&quot;font-size: 14px;&quot;&gt;Digite sua tarefa.&lt;/font&gt;" style="html=1;whiteSpace=wrap;direction=west;" parent="1" vertex="1">
          <mxGeometry x="10" y="1094" width="110" height="50" as="geometry" />
        </mxCell>
        <mxCell id="ofXk7ZVOFxczzcaQG5kB-108" style="edgeStyle=orthogonalEdgeStyle;rounded=0;orthogonalLoop=1;jettySize=auto;html=1;exitX=1;exitY=0.5;exitDx=0;exitDy=0;entryX=0;entryY=0.5;entryDx=0;entryDy=0;" parent="1" source="ofXk7ZVOFxczzcaQG5kB-57" target="ofXk7ZVOFxczzcaQG5kB-58" edge="1">
          <mxGeometry relative="1" as="geometry" />
        </mxCell>
        <mxCell id="ofXk7ZVOFxczzcaQG5kB-57" value="&lt;font style=&quot;font-size: 14px;&quot;&gt;Digite sua tarefa.&lt;/font&gt;" style="html=1;whiteSpace=wrap;" parent="1" vertex="1">
          <mxGeometry x="289" y="375" width="110" height="50" as="geometry" />
        </mxCell>
        <mxCell id="ofXk7ZVOFxczzcaQG5kB-58" value="12:00 pm" style="ellipse;whiteSpace=wrap;html=1;" parent="1" vertex="1">
          <mxGeometry x="439" y="350" width="100" height="100" as="geometry" />
        </mxCell>
        <mxCell id="ofXk7ZVOFxczzcaQG5kB-109" style="edgeStyle=orthogonalEdgeStyle;rounded=0;orthogonalLoop=1;jettySize=auto;html=1;exitX=0;exitY=0.5;exitDx=0;exitDy=0;entryX=0;entryY=0.5;entryDx=0;entryDy=0;" parent="1" source="ofXk7ZVOFxczzcaQG5kB-59" target="ofXk7ZVOFxczzcaQG5kB-60" edge="1">
          <mxGeometry relative="1" as="geometry" />
        </mxCell>
        <mxCell id="ofXk7ZVOFxczzcaQG5kB-59" value="&lt;font style=&quot;font-size: 14px;&quot;&gt;Digite sua tarefa.&lt;/font&gt;" style="html=1;whiteSpace=wrap;direction=west;" parent="1" vertex="1">
          <mxGeometry x="289" y="495" width="110" height="50" as="geometry" />
        </mxCell>
        <mxCell id="ofXk7ZVOFxczzcaQG5kB-60" value="13:00 pm" style="ellipse;whiteSpace=wrap;html=1;" parent="1" vertex="1">
          <mxGeometry x="439" y="470" width="100" height="100" as="geometry" />
        </mxCell>
        <mxCell id="ofXk7ZVOFxczzcaQG5kB-61" value="14:00 pm" style="ellipse;whiteSpace=wrap;html=1;" parent="1" vertex="1">
          <mxGeometry x="439" y="590" width="100" height="100" as="geometry" />
        </mxCell>
        <mxCell id="ofXk7ZVOFxczzcaQG5kB-62" value="15:00 pm" style="ellipse;whiteSpace=wrap;html=1;" parent="1" vertex="1">
          <mxGeometry x="439" y="710" width="100" height="100" as="geometry" />
        </mxCell>
        <mxCell id="ofXk7ZVOFxczzcaQG5kB-63" value="16:00 pm" style="ellipse;whiteSpace=wrap;html=1;" parent="1" vertex="1">
          <mxGeometry x="439" y="830" width="100" height="100" as="geometry" />
        </mxCell>
        <mxCell id="ofXk7ZVOFxczzcaQG5kB-64" value="17:00 pm" style="ellipse;whiteSpace=wrap;html=1;" parent="1" vertex="1">
          <mxGeometry x="439" y="950" width="100" height="100" as="geometry" />
        </mxCell>
        <mxCell id="ofXk7ZVOFxczzcaQG5kB-65" value="18:00 pm" style="ellipse;whiteSpace=wrap;html=1;" parent="1" vertex="1">
          <mxGeometry x="439" y="1069" width="100" height="100" as="geometry" />
        </mxCell>
        <mxCell id="ofXk7ZVOFxczzcaQG5kB-110" style="edgeStyle=orthogonalEdgeStyle;rounded=0;orthogonalLoop=1;jettySize=auto;html=1;exitX=0;exitY=0.5;exitDx=0;exitDy=0;entryX=0;entryY=0.5;entryDx=0;entryDy=0;" parent="1" source="ofXk7ZVOFxczzcaQG5kB-66" target="ofXk7ZVOFxczzcaQG5kB-61" edge="1">
          <mxGeometry relative="1" as="geometry" />
        </mxCell>
        <mxCell id="ofXk7ZVOFxczzcaQG5kB-66" value="&lt;font style=&quot;font-size: 14px;&quot;&gt;Digite sua tarefa.&lt;/font&gt;" style="html=1;whiteSpace=wrap;direction=west;" parent="1" vertex="1">
          <mxGeometry x="289" y="615" width="110" height="50" as="geometry" />
        </mxCell>
        <mxCell id="ofXk7ZVOFxczzcaQG5kB-111" style="edgeStyle=orthogonalEdgeStyle;rounded=0;orthogonalLoop=1;jettySize=auto;html=1;exitX=0;exitY=0.5;exitDx=0;exitDy=0;entryX=0;entryY=0.5;entryDx=0;entryDy=0;" parent="1" source="ofXk7ZVOFxczzcaQG5kB-67" target="ofXk7ZVOFxczzcaQG5kB-62" edge="1">
          <mxGeometry relative="1" as="geometry" />
        </mxCell>
        <mxCell id="ofXk7ZVOFxczzcaQG5kB-67" value="&lt;font style=&quot;font-size: 14px;&quot;&gt;Digite sua tarefa.&lt;/font&gt;" style="html=1;whiteSpace=wrap;direction=west;" parent="1" vertex="1">
          <mxGeometry x="289" y="735" width="110" height="50" as="geometry" />
        </mxCell>
        <mxCell id="ofXk7ZVOFxczzcaQG5kB-112" style="edgeStyle=orthogonalEdgeStyle;rounded=0;orthogonalLoop=1;jettySize=auto;html=1;exitX=0;exitY=0.5;exitDx=0;exitDy=0;entryX=0;entryY=0.5;entryDx=0;entryDy=0;" parent="1" source="ofXk7ZVOFxczzcaQG5kB-68" target="ofXk7ZVOFxczzcaQG5kB-63" edge="1">
          <mxGeometry relative="1" as="geometry" />
        </mxCell>
        <mxCell id="ofXk7ZVOFxczzcaQG5kB-68" value="&lt;font style=&quot;font-size: 14px;&quot;&gt;Digite sua tarefa.&lt;/font&gt;" style="html=1;whiteSpace=wrap;direction=west;" parent="1" vertex="1">
          <mxGeometry x="289" y="855" width="110" height="50" as="geometry" />
        </mxCell>
        <mxCell id="ofXk7ZVOFxczzcaQG5kB-113" style="edgeStyle=orthogonalEdgeStyle;rounded=0;orthogonalLoop=1;jettySize=auto;html=1;exitX=0;exitY=0.5;exitDx=0;exitDy=0;entryX=0;entryY=0.5;entryDx=0;entryDy=0;" parent="1" source="ofXk7ZVOFxczzcaQG5kB-69" target="ofXk7ZVOFxczzcaQG5kB-64" edge="1">
          <mxGeometry relative="1" as="geometry" />
        </mxCell>
        <mxCell id="ofXk7ZVOFxczzcaQG5kB-69" value="&lt;font style=&quot;font-size: 14px;&quot;&gt;Digite sua tarefa.&lt;/font&gt;" style="html=1;whiteSpace=wrap;direction=west;" parent="1" vertex="1">
          <mxGeometry x="289" y="975" width="110" height="50" as="geometry" />
        </mxCell>
        <mxCell id="ofXk7ZVOFxczzcaQG5kB-114" style="edgeStyle=orthogonalEdgeStyle;rounded=0;orthogonalLoop=1;jettySize=auto;html=1;exitX=0;exitY=0.5;exitDx=0;exitDy=0;entryX=0;entryY=0.5;entryDx=0;entryDy=0;" parent="1" source="ofXk7ZVOFxczzcaQG5kB-70" target="ofXk7ZVOFxczzcaQG5kB-65" edge="1">
          <mxGeometry relative="1" as="geometry" />
        </mxCell>
        <mxCell id="ofXk7ZVOFxczzcaQG5kB-70" value="&lt;font style=&quot;font-size: 14px;&quot;&gt;Digite sua tarefa.&lt;/font&gt;" style="html=1;whiteSpace=wrap;direction=west;" parent="1" vertex="1">
          <mxGeometry x="289" y="1094" width="110" height="50" as="geometry" />
        </mxCell>
        <mxCell id="ofXk7ZVOFxczzcaQG5kB-121" style="edgeStyle=orthogonalEdgeStyle;rounded=0;orthogonalLoop=1;jettySize=auto;html=1;exitX=1;exitY=0.5;exitDx=0;exitDy=0;entryX=0;entryY=0.5;entryDx=0;entryDy=0;" parent="1" source="ofXk7ZVOFxczzcaQG5kB-85" target="ofXk7ZVOFxczzcaQG5kB-86" edge="1">
          <mxGeometry relative="1" as="geometry" />
        </mxCell>
        <mxCell id="ofXk7ZVOFxczzcaQG5kB-85" value="&lt;font style=&quot;font-size: 14px;&quot;&gt;Digite sua tarefa.&lt;/font&gt;" style="html=1;whiteSpace=wrap;" parent="1" vertex="1">
          <mxGeometry x="573" y="375" width="110" height="50" as="geometry" />
        </mxCell>
        <mxCell id="ofXk7ZVOFxczzcaQG5kB-86" value="19:00 pm" style="ellipse;whiteSpace=wrap;html=1;" parent="1" vertex="1">
          <mxGeometry x="723" y="350" width="100" height="100" as="geometry" />
        </mxCell>
        <mxCell id="ofXk7ZVOFxczzcaQG5kB-120" style="edgeStyle=orthogonalEdgeStyle;rounded=0;orthogonalLoop=1;jettySize=auto;html=1;exitX=0;exitY=0.5;exitDx=0;exitDy=0;entryX=0;entryY=0.5;entryDx=0;entryDy=0;" parent="1" source="ofXk7ZVOFxczzcaQG5kB-87" target="ofXk7ZVOFxczzcaQG5kB-88" edge="1">
          <mxGeometry relative="1" as="geometry" />
        </mxCell>
        <mxCell id="ofXk7ZVOFxczzcaQG5kB-87" value="&lt;font style=&quot;font-size: 14px;&quot;&gt;Digite sua tarefa.&lt;/font&gt;" style="html=1;whiteSpace=wrap;direction=west;" parent="1" vertex="1">
          <mxGeometry x="573" y="495" width="110" height="50" as="geometry" />
        </mxCell>
        <mxCell id="ofXk7ZVOFxczzcaQG5kB-88" value="20:00 pm" style="ellipse;whiteSpace=wrap;html=1;" parent="1" vertex="1">
          <mxGeometry x="723" y="470" width="100" height="100" as="geometry" />
        </mxCell>
        <mxCell id="ofXk7ZVOFxczzcaQG5kB-89" value="21:00 pm" style="ellipse;whiteSpace=wrap;html=1;" parent="1" vertex="1">
          <mxGeometry x="723" y="590" width="100" height="100" as="geometry" />
        </mxCell>
        <mxCell id="ofXk7ZVOFxczzcaQG5kB-90" value="22:00 pm" style="ellipse;whiteSpace=wrap;html=1;" parent="1" vertex="1">
          <mxGeometry x="723" y="710" width="100" height="100" as="geometry" />
        </mxCell>
        <mxCell id="ofXk7ZVOFxczzcaQG5kB-91" value="23:00 pm" style="ellipse;whiteSpace=wrap;html=1;" parent="1" vertex="1">
          <mxGeometry x="723" y="830" width="100" height="100" as="geometry" />
        </mxCell>
        <mxCell id="ofXk7ZVOFxczzcaQG5kB-92" value="00:00 pm" style="ellipse;whiteSpace=wrap;html=1;" parent="1" vertex="1">
          <mxGeometry x="723" y="950" width="100" height="100" as="geometry" />
        </mxCell>
        <mxCell id="ofXk7ZVOFxczzcaQG5kB-93" value="1:00 am" style="ellipse;whiteSpace=wrap;html=1;" parent="1" vertex="1">
          <mxGeometry x="723" y="1069" width="100" height="100" as="geometry" />
        </mxCell>
        <mxCell id="ofXk7ZVOFxczzcaQG5kB-119" style="edgeStyle=orthogonalEdgeStyle;rounded=0;orthogonalLoop=1;jettySize=auto;html=1;exitX=0;exitY=0.5;exitDx=0;exitDy=0;" parent="1" source="ofXk7ZVOFxczzcaQG5kB-94" target="ofXk7ZVOFxczzcaQG5kB-89" edge="1">
          <mxGeometry relative="1" as="geometry" />
        </mxCell>
        <mxCell id="ofXk7ZVOFxczzcaQG5kB-94" value="&lt;font style=&quot;font-size: 14px;&quot;&gt;Digite sua tarefa.&lt;/font&gt;" style="html=1;whiteSpace=wrap;direction=west;" parent="1" vertex="1">
          <mxGeometry x="573" y="615" width="110" height="50" as="geometry" />
        </mxCell>
        <mxCell id="ofXk7ZVOFxczzcaQG5kB-118" style="edgeStyle=orthogonalEdgeStyle;rounded=0;orthogonalLoop=1;jettySize=auto;html=1;exitX=0;exitY=0.5;exitDx=0;exitDy=0;entryX=0;entryY=0.5;entryDx=0;entryDy=0;" parent="1" source="ofXk7ZVOFxczzcaQG5kB-95" target="ofXk7ZVOFxczzcaQG5kB-90" edge="1">
          <mxGeometry relative="1" as="geometry" />
        </mxCell>
        <mxCell id="ofXk7ZVOFxczzcaQG5kB-95" value="&lt;font style=&quot;font-size: 14px;&quot;&gt;Digite sua tarefa.&lt;/font&gt;" style="html=1;whiteSpace=wrap;direction=west;" parent="1" vertex="1">
          <mxGeometry x="573" y="735" width="110" height="50" as="geometry" />
        </mxCell>
        <mxCell id="ofXk7ZVOFxczzcaQG5kB-117" style="edgeStyle=orthogonalEdgeStyle;rounded=0;orthogonalLoop=1;jettySize=auto;html=1;exitX=0;exitY=0.5;exitDx=0;exitDy=0;entryX=0;entryY=0.5;entryDx=0;entryDy=0;" parent="1" source="ofXk7ZVOFxczzcaQG5kB-96" target="ofXk7ZVOFxczzcaQG5kB-91" edge="1">
          <mxGeometry relative="1" as="geometry" />
        </mxCell>
        <mxCell id="ofXk7ZVOFxczzcaQG5kB-96" value="&lt;font style=&quot;font-size: 14px;&quot;&gt;Digite sua tarefa.&lt;/font&gt;" style="html=1;whiteSpace=wrap;direction=west;" parent="1" vertex="1">
          <mxGeometry x="573" y="855" width="110" height="50" as="geometry" />
        </mxCell>
        <mxCell id="ofXk7ZVOFxczzcaQG5kB-115" style="edgeStyle=orthogonalEdgeStyle;rounded=0;orthogonalLoop=1;jettySize=auto;html=1;exitX=0;exitY=0.5;exitDx=0;exitDy=0;entryX=0;entryY=0.5;entryDx=0;entryDy=0;" parent="1" source="ofXk7ZVOFxczzcaQG5kB-97" target="ofXk7ZVOFxczzcaQG5kB-92" edge="1">
          <mxGeometry relative="1" as="geometry" />
        </mxCell>
        <mxCell id="ofXk7ZVOFxczzcaQG5kB-97" value="&lt;font style=&quot;font-size: 14px;&quot;&gt;Digite sua tarefa.&lt;/font&gt;" style="html=1;whiteSpace=wrap;direction=west;" parent="1" vertex="1">
          <mxGeometry x="573" y="975" width="110" height="50" as="geometry" />
        </mxCell>
        <mxCell id="ofXk7ZVOFxczzcaQG5kB-116" style="edgeStyle=orthogonalEdgeStyle;rounded=0;orthogonalLoop=1;jettySize=auto;html=1;exitX=0;exitY=0.5;exitDx=0;exitDy=0;entryX=0;entryY=0.5;entryDx=0;entryDy=0;" parent="1" source="ofXk7ZVOFxczzcaQG5kB-98" target="ofXk7ZVOFxczzcaQG5kB-93" edge="1">
          <mxGeometry relative="1" as="geometry" />
        </mxCell>
        <mxCell id="ofXk7ZVOFxczzcaQG5kB-98" value="&lt;font style=&quot;font-size: 14px;&quot;&gt;Digite sua tarefa.&lt;/font&gt;" style="html=1;whiteSpace=wrap;direction=west;" parent="1" vertex="1">
          <mxGeometry x="573" y="1094" width="110" height="50" as="geometry" />
        </mxCell>
      </root>
    </mxGraphModel>
  </diagram>
</mxfile>
